<svg id="Layer_1" enable-background="new 0 0 70 70" height="512" viewBox="0 0 70 70" width="512" xmlns="http://www.w3.org/2000/svg"><path d="m15.3022461 31.0566406c-1.1030273 0-2 .8974609-2 2v25.8779297c-2.0004883 2.1464844-3.0966797 4.9287109-3.0966797 7.8789062v.1865235c0 .5527344.4477539 1 1 1h41.3554688c.5522461 0 1-.4472656 1-1v-.1865234c0-3.0019531-1.1352539-5.8300781-3.2045898-7.9931641v-25.7636719c0-.9675293-.69104-1.7763672-1.6055908-1.960144l9.3917236-14.56427c.0328979-.0512085.0424805-.1123657.0655518-.1682129.0265503-.0648193.0632324-.1265869.0755615-.1938477.0006714-.00354.0032959-.0064087.0039062-.0100098l1.4921875-8.6474609c.0683593-.3964844-.1074219-.7958984-.4467774-1.0126953-.3388672-.2158203-.7749023-.2080078-1.1069336.0195312l-7.0742187 4.8867188c-.0415649.0289307-.0665894.0744629-.1031494.1088867-.053894.0505371-.114624.0917358-.1575928.1557617-.0039673.0058594-.0040283.0128174-.0078125.0187378-.0036011.0056763-.0101929.008728-.0136719.0144653l-11.9572143 19.3525391h-.5266724v-20.3603515h1.5625v8.4941406c0 .5527344.4477539 1 1 1s1-.4472656 1-1v-9.4941406c0-.5527344-.4477539-1-1-1h-2.5625v-4.0732422c0-1.4462891-1.1767578-2.6230469-2.6230469-2.6230469h-2.8120117c-1.4462891 0-2.6225586 1.1767578-2.6225586 2.6230469v26.4335938h-1.5506592l-5.7633056-25.5566407c-.0585938-.2587891-.2172852-.484375-.4414062-.6259766-.2246094-.140625-.4941406-.1875-.7548828-.1298828l-9.8203125 2.2207031c-.5385742.1220703-.8764648.6572266-.7548828 1.1962891l4.6849976 20.7318726c.0001831.0008545-.0001221.0016479.000061.0025024.0002441.0009766.0008545.001709.0010986.0026855l.487793 2.1584473zm2.3477173 1.999939c.0060425.0001221.0114746.0029907.0175171.0029907.0089722 0 .0183105-.0027466.0273438-.0029907l13.5922241-.0004272c.0144043.0006104.0264893.0083008.0410767.0083008s.0266724-.0076904.0410767-.0083008l5.9746094-.0001831c.0147095.0006714.0270386.0084839.0419312.0084839s.0272217-.0078125.0419312-.0084839l2.0358276-.000061c.00177 0 .003479.0007324.005249.0007324.0019531 0 .0037231-.0007324.0056763-.0007324l8.882019-.0002441v25.2822266h-33.0541994v-25.28125zm33.8773804 32.9434204h-39.288086c.1774902-2.1185913 1.0526123-4.0907593 2.5014038-5.6621094h34.2852783c1.4487915 1.5713501 2.3239136 3.5435181 2.5014039 5.6621094zm5.052185-51.7020874-3.0848999-2.0784302 3.909668-2.7009277zm-4.5550537-.657959 3.906311 2.6317139-9.5338745 14.7849731h-5.1340942zm-19.0737915-9.6399536h2.8120117c.34375 0 .6230469.2792969.6230469.6230469v4.0732422h-4.0576172v-4.0732422c0-.34375.2792969-.6230469.6225586-.6230469zm-.6225586 6.6962891h4.0576172v20.3603516h-4.0576172zm-14.2286377 18.7337646 1.2774658-.2884521c.5385742-.1220703.8769531-.6572266.7553711-1.1962891-.121582-.5380859-.6538086-.8769531-1.1958008-.7548828l-1.2779541.2885132-.7943726-3.5154419 1.2783813-.2886963c.5385742-.1220703.8769531-.6572266.7553711-1.1962891-.1220703-.5380859-.6572266-.875-1.1958008-.7548828l-1.2788086.2888184-.7943726-3.5151978 1.2792358-.288269c.5390625-.1210938.8774414-.65625.7558594-1.1953125-.1220703-.5390625-.6567383-.8759766-1.1953125-.7558594l-1.2805786.2885742-.7943115-3.5150146 1.2804565-.2891846c.5385742-.1220703.8769531-.6572266.7553711-1.1962891-.1220703-.5380859-.6601562-.8759766-1.1958008-.7548828l-1.2808838.2892456-.5389404-2.3849487 7.8691406-1.7792969 5.4440308 24.140625h-8.2601927z"/></svg>